<svg xmlns="http://www.w3.org/2000/svg" xmlns:xlink="http://www.w3.org/1999/xlink" width="500" zoomAndPan="magnify" viewBox="0 0 375 374.999991" height="500" preserveAspectRatio="xMidYMid meet" version="1.0"><defs><g/><clipPath id="cf3ffa1b79"><path d="M 169 117 L 202 117 L 202 194.953125 L 169 194.953125 Z M 169 117 " clip-rule="nonzero"/></clipPath><clipPath id="a45fc4d622"><path d="M 206 145 L 237 145 L 237 194.953125 L 206 194.953125 Z M 206 145 " clip-rule="nonzero"/></clipPath><clipPath id="0896401359"><path d="M 185 158 L 220 158 L 220 194.953125 L 185 194.953125 Z M 185 158 " clip-rule="nonzero"/></clipPath><clipPath id="768473f470"><path d="M 138 145 L 194 145 L 194 194.953125 L 138 194.953125 Z M 138 145 " clip-rule="nonzero"/></clipPath></defs><g clip-path="url(#cf3ffa1b79)"><path fill="#000000" d="M 201.023438 156.507812 L 181.011719 153.609375 L 181.804688 145.628906 L 184.386719 119.617188 L 185.015625 117.59375 L 182.117188 121.871094 L 179.355469 132.910156 L 176.710938 140.085938 L 175.050781 145.128906 L 174.664062 146.296875 L 172.59375 150.4375 L 169.007812 159.957031 L 172.457031 163.40625 L 184.324219 164.648438 L 186.671875 171.550781 L 184.207031 195.230469 L 201.023438 156.507812 " fill-opacity="1" fill-rule="nonzero"/></g><path fill="#000000" d="M 197.5 122.003906 L 191.675781 111.914062 C 189.820312 108.699219 185.179688 108.699219 183.324219 111.914062 L 171.503906 132.382812 L 174.460938 132.382812 C 176.09375 132.382812 177.417969 133.707031 177.417969 135.339844 C 177.417969 136.976562 176.09375 138.300781 174.460938 138.300781 L 168.089844 138.300781 L 164.777344 144.035156 L 170.527344 144.035156 C 171.480469 144.035156 172.328125 144.492188 172.871094 145.195312 C 173.515625 145.328125 174.171875 145.335938 174.828125 145.328125 C 175.363281 145.324219 175.871094 145.332031 176.4375 145.148438 L 184.386719 119.617188 L 197.5 122.003906 " fill-opacity="1" fill-rule="nonzero"/><g clip-path="url(#a45fc4d622)"><path fill="#000000" d="M 235.601562 188 L 214.234375 150.988281 L 215.035156 145.371094 L 206.980469 158.757812 C 215.191406 169.203125 218.21875 181.816406 216.246094 195.230469 L 231.425781 195.230469 C 235.140625 195.230469 237.457031 191.214844 235.601562 188 " fill-opacity="1" fill-rule="nonzero"/></g><g clip-path="url(#0896401359)"><path fill="#000000" d="M 206.980469 158.757812 L 185.042969 195.230469 L 218.5625 195.230469 C 220.53125 181.816406 216.097656 168.367188 206.980469 158.757812 " fill-opacity="1" fill-rule="nonzero"/></g><path fill="#000000" d="M 205.320312 135.550781 L 208.589844 124.019531 L 197.507812 144.410156 L 210.855469 145.140625 L 205.320312 135.550781 " fill-opacity="1" fill-rule="nonzero"/><g clip-path="url(#768473f470)"><path fill="#000000" d="M 172.871094 145.195312 C 173.253906 145.691406 173.484375 146.316406 173.484375 146.996094 C 173.484375 148.628906 172.160156 149.953125 170.527344 149.953125 L 161.363281 149.953125 L 158.050781 155.691406 L 163.695312 155.691406 C 165.328125 155.691406 166.65625 157.015625 166.65625 158.648438 C 166.65625 160.28125 165.328125 161.605469 163.695312 161.605469 L 154.632812 161.605469 L 151.320312 167.34375 L 171.386719 167.34375 C 173.019531 167.34375 174.34375 168.667969 174.34375 170.300781 C 174.34375 171.933594 173.019531 173.257812 171.386719 173.257812 L 147.90625 173.257812 L 144.59375 178.996094 L 159.144531 178.996094 C 160.777344 178.996094 162.101562 180.320312 162.101562 181.953125 C 162.101562 183.585938 160.777344 184.910156 159.144531 184.910156 L 141.179688 184.910156 L 139.394531 188 C 137.539062 191.214844 139.859375 195.230469 143.570312 195.230469 L 184.207031 195.230469 L 193.425781 161.617188 L 171.84375 159.894531 L 176.4375 145.148438 C 175.242188 145.113281 174.054688 145.128906 172.871094 145.195312 " fill-opacity="1" fill-rule="nonzero"/></g><g fill="#000000" fill-opacity="1"><g transform="translate(93.281248, 227.918277)"><g><path d="M 14.53125 0 L 2.234375 0 L 2.234375 -20.703125 L 14.53125 -20.703125 L 14.53125 -16.21875 L 7.828125 -16.21875 L 7.828125 -12.953125 L 14.03125 -12.953125 L 14.03125 -8.46875 L 7.828125 -8.46875 L 7.828125 -4.5625 L 14.53125 -4.5625 Z M 14.53125 0 "/></g></g></g><g fill="#000000" fill-opacity="1"><g transform="translate(109.192975, 227.918277)"><g><path d="M 2.234375 0 L 2.234375 -20.703125 L 7.828125 -20.703125 L 7.828125 -4.515625 L 15.796875 -4.515625 L 15.796875 0 Z M 2.234375 0 "/></g></g></g><g fill="#000000" fill-opacity="1"><g transform="translate(126.067333, 227.918277)"><g><path d="M 14.53125 0 L 2.234375 0 L 2.234375 -20.703125 L 14.53125 -20.703125 L 14.53125 -16.21875 L 7.828125 -16.21875 L 7.828125 -12.953125 L 14.03125 -12.953125 L 14.03125 -8.46875 L 7.828125 -8.46875 L 7.828125 -4.5625 L 14.53125 -4.5625 Z M 14.53125 0 "/></g></g></g><g fill="#000000" fill-opacity="1"><g transform="translate(141.97906, 227.918277)"><g><path d="M 11.453125 -16.40625 C 10.117188 -16.40625 9.078125 -15.859375 8.328125 -14.765625 C 7.585938 -13.679688 7.21875 -12.179688 7.21875 -10.265625 C 7.21875 -6.285156 8.734375 -4.296875 11.765625 -4.296875 C 12.679688 -4.296875 13.566406 -4.421875 14.421875 -4.671875 C 15.285156 -4.929688 16.148438 -5.238281 17.015625 -5.59375 L 17.015625 -0.859375 C 15.285156 -0.0976562 13.332031 0.28125 11.15625 0.28125 C 8.03125 0.28125 5.632812 -0.625 3.96875 -2.4375 C 2.300781 -4.25 1.46875 -6.867188 1.46875 -10.296875 C 1.46875 -12.441406 1.867188 -14.320312 2.671875 -15.9375 C 3.484375 -17.5625 4.644531 -18.8125 6.15625 -19.6875 C 7.675781 -20.5625 9.460938 -21 11.515625 -21 C 13.753906 -21 15.890625 -20.515625 17.921875 -19.546875 L 16.21875 -15.140625 C 15.445312 -15.492188 14.675781 -15.789062 13.90625 -16.03125 C 13.144531 -16.28125 12.328125 -16.40625 11.453125 -16.40625 Z M 11.453125 -16.40625 "/></g></g></g><g fill="#000000" fill-opacity="1"><g transform="translate(160.792837, 227.918277)"><g><path d="M 11.375 0 L 5.78125 0 L 5.78125 -16.125 L 0.71875 -16.125 L 0.71875 -20.703125 L 16.40625 -20.703125 L 16.40625 -16.125 L 11.375 -16.125 Z M 11.375 0 "/></g></g></g><g fill="#000000" fill-opacity="1"><g transform="translate(177.922009, 227.918277)"><g><path d="M 7.828125 -7.53125 L 7.828125 0 L 2.234375 0 L 2.234375 -20.703125 L 9.015625 -20.703125 C 14.640625 -20.703125 17.453125 -18.660156 17.453125 -14.578125 C 17.453125 -12.179688 16.285156 -10.328125 13.953125 -9.015625 L 19.984375 0 L 13.640625 0 L 9.25 -7.53125 Z M 7.828125 -11.734375 L 8.875 -11.734375 C 10.832031 -11.734375 11.8125 -12.597656 11.8125 -14.328125 C 11.8125 -15.753906 10.851562 -16.46875 8.9375 -16.46875 L 7.828125 -16.46875 Z M 7.828125 -11.734375 "/></g></g></g><g fill="#000000" fill-opacity="1"><g transform="translate(197.542697, 227.918277)"><g><path d="M 21.609375 -10.375 C 21.609375 -6.894531 20.753906 -4.25 19.046875 -2.4375 C 17.335938 -0.625 14.835938 0.28125 11.546875 0.28125 C 8.296875 0.28125 5.800781 -0.628906 4.0625 -2.453125 C 2.332031 -4.273438 1.46875 -6.925781 1.46875 -10.40625 C 1.46875 -13.851562 2.328125 -16.484375 4.046875 -18.296875 C 5.773438 -20.117188 8.28125 -21.03125 11.5625 -21.03125 C 14.863281 -21.03125 17.363281 -20.128906 19.0625 -18.328125 C 20.757812 -16.523438 21.609375 -13.875 21.609375 -10.375 Z M 7.359375 -10.375 C 7.359375 -6.375 8.753906 -4.375 11.546875 -4.375 C 12.960938 -4.375 14.007812 -4.859375 14.6875 -5.828125 C 15.375 -6.804688 15.71875 -8.320312 15.71875 -10.375 C 15.71875 -12.445312 15.367188 -13.972656 14.671875 -14.953125 C 13.984375 -15.941406 12.945312 -16.4375 11.5625 -16.4375 C 8.757812 -16.4375 7.359375 -14.414062 7.359375 -10.375 Z M 7.359375 -10.375 "/></g></g></g><g fill="#000000" fill-opacity="1"><g transform="translate(220.645845, 227.918277)"><g><path d="M 21.953125 0 L 14.609375 0 L 7.046875 -14.578125 L 6.921875 -14.578125 C 7.097656 -12.285156 7.1875 -10.535156 7.1875 -9.328125 L 7.1875 0 L 2.234375 0 L 2.234375 -20.703125 L 9.546875 -20.703125 L 17.078125 -6.3125 L 17.15625 -6.3125 C 17.03125 -8.394531 16.96875 -10.070312 16.96875 -11.34375 L 16.96875 -20.703125 L 21.953125 -20.703125 Z M 21.953125 0 "/></g></g></g><g fill="#000000" fill-opacity="1"><g transform="translate(244.824874, 227.918277)"><g><path d="M 14.53125 0 L 2.234375 0 L 2.234375 -20.703125 L 14.53125 -20.703125 L 14.53125 -16.21875 L 7.828125 -16.21875 L 7.828125 -12.953125 L 14.03125 -12.953125 L 14.03125 -8.46875 L 7.828125 -8.46875 L 7.828125 -4.5625 L 14.53125 -4.5625 Z M 14.53125 0 "/></g></g></g><g fill="#000000" fill-opacity="1"><g transform="translate(260.736601, 227.918277)"><g><path d="M 20.890625 0 L 14.421875 0 L 10.375 -6.46875 L 6.390625 0 L 0.0625 0 L 6.921875 -10.59375 L 0.46875 -20.703125 L 6.671875 -20.703125 L 10.40625 -14.296875 L 14 -20.703125 L 20.390625 -20.703125 L 13.828125 -10.15625 Z M 20.890625 0 "/></g></g></g><g fill="#000000" fill-opacity="1"><g transform="translate(130.355709, 246.319289)"><g><path d="M 6 0 L 0.921875 0 L 0.921875 -8.5625 L 6 -8.5625 L 6 -6.703125 L 3.234375 -6.703125 L 3.234375 -5.359375 L 5.796875 -5.359375 L 5.796875 -3.5 L 3.234375 -3.5 L 3.234375 -1.890625 L 6 -1.890625 Z M 6 0 "/></g></g></g><g fill="#000000" fill-opacity="1"><g transform="translate(136.928783, 246.319289)"><g><path d="M 9.0625 0 L 6.03125 0 L 2.921875 -6.03125 L 2.859375 -6.03125 C 2.929688 -5.082031 2.96875 -4.359375 2.96875 -3.859375 L 2.96875 0 L 0.921875 0 L 0.921875 -8.5625 L 3.9375 -8.5625 L 7.0625 -2.609375 L 7.09375 -2.609375 C 7.039062 -3.472656 7.015625 -4.164062 7.015625 -4.6875 L 7.015625 -8.5625 L 9.0625 -8.5625 Z M 9.0625 0 "/></g></g></g><g fill="#000000" fill-opacity="1"><g transform="translate(146.917048, 246.319289)"><g><path d="M 6 0 L 0.921875 0 L 0.921875 -8.5625 L 6 -8.5625 L 6 -6.703125 L 3.234375 -6.703125 L 3.234375 -5.359375 L 5.796875 -5.359375 L 5.796875 -3.5 L 3.234375 -3.5 L 3.234375 -1.890625 L 6 -1.890625 Z M 6 0 "/></g></g></g><g fill="#000000" fill-opacity="1"><g transform="translate(153.490122, 246.319289)"><g><path d="M 3.234375 -3.109375 L 3.234375 0 L 0.921875 0 L 0.921875 -8.5625 L 3.734375 -8.5625 C 6.054688 -8.5625 7.21875 -7.71875 7.21875 -6.03125 C 7.21875 -5.039062 6.734375 -4.273438 5.765625 -3.734375 L 8.25 0 L 5.640625 0 L 3.828125 -3.109375 Z M 3.234375 -4.84375 L 3.671875 -4.84375 C 4.472656 -4.84375 4.875 -5.203125 4.875 -5.921875 C 4.875 -6.515625 4.476562 -6.8125 3.6875 -6.8125 L 3.234375 -6.8125 Z M 3.234375 -4.84375 "/></g></g></g><g fill="#000000" fill-opacity="1"><g transform="translate(161.595354, 246.319289)"><g><path d="M 4.359375 -5.015625 L 8.046875 -5.015625 L 8.046875 -0.390625 C 7.046875 -0.0546875 5.945312 0.109375 4.75 0.109375 C 3.425781 0.109375 2.40625 -0.269531 1.6875 -1.03125 C 0.96875 -1.789062 0.609375 -2.878906 0.609375 -4.296875 C 0.609375 -5.679688 1 -6.753906 1.78125 -7.515625 C 2.570312 -8.285156 3.679688 -8.671875 5.109375 -8.671875 C 5.640625 -8.671875 6.144531 -8.617188 6.625 -8.515625 C 7.101562 -8.421875 7.519531 -8.296875 7.875 -8.140625 L 7.140625 -6.328125 C 6.523438 -6.628906 5.847656 -6.78125 5.109375 -6.78125 C 4.441406 -6.78125 3.921875 -6.5625 3.546875 -6.125 C 3.179688 -5.6875 3 -5.0625 3 -4.25 C 3 -3.445312 3.164062 -2.832031 3.5 -2.40625 C 3.832031 -1.988281 4.3125 -1.78125 4.9375 -1.78125 C 5.28125 -1.78125 5.597656 -1.816406 5.890625 -1.890625 L 5.890625 -3.21875 L 4.359375 -3.21875 Z M 4.359375 -5.015625 "/></g></g></g><g fill="#000000" fill-opacity="1"><g transform="translate(170.460817, 246.319289)"><g><path d="M 3.984375 -5.390625 L 5.453125 -8.5625 L 7.953125 -8.5625 L 5.140625 -3.34375 L 5.140625 0 L 2.8125 0 L 2.8125 -3.265625 L 0 -8.5625 L 2.515625 -8.5625 Z M 3.984375 -5.390625 "/></g></g></g><g fill="#000000" fill-opacity="1"><g transform="translate(178.414002, 246.319289)"><g/></g></g><g fill="#000000" fill-opacity="1"><g transform="translate(181.525101, 246.319289)"><g><path d="M 4.734375 -6.78125 C 4.179688 -6.78125 3.75 -6.554688 3.4375 -6.109375 C 3.132812 -5.660156 2.984375 -5.039062 2.984375 -4.25 C 2.984375 -2.59375 3.609375 -1.765625 4.859375 -1.765625 C 5.242188 -1.765625 5.613281 -1.816406 5.96875 -1.921875 C 6.320312 -2.035156 6.675781 -2.164062 7.03125 -2.3125 L 7.03125 -0.359375 C 6.320312 -0.046875 5.515625 0.109375 4.609375 0.109375 C 3.316406 0.109375 2.328125 -0.257812 1.640625 -1 C 0.953125 -1.75 0.609375 -2.832031 0.609375 -4.25 C 0.609375 -5.132812 0.773438 -5.910156 1.109375 -6.578125 C 1.441406 -7.253906 1.921875 -7.769531 2.546875 -8.125 C 3.171875 -8.488281 3.90625 -8.671875 4.75 -8.671875 C 5.675781 -8.671875 6.5625 -8.472656 7.40625 -8.078125 L 6.703125 -6.25 C 6.378906 -6.40625 6.0625 -6.53125 5.75 -6.625 C 5.4375 -6.726562 5.097656 -6.78125 4.734375 -6.78125 Z M 4.734375 -6.78125 "/></g></g></g><g fill="#000000" fill-opacity="1"><g transform="translate(189.297001, 246.319289)"><g><path d="M 8.9375 -4.296875 C 8.9375 -2.847656 8.582031 -1.75 7.875 -1 C 7.164062 -0.257812 6.128906 0.109375 4.765625 0.109375 C 3.421875 0.109375 2.390625 -0.265625 1.671875 -1.015625 C 0.960938 -1.765625 0.609375 -2.859375 0.609375 -4.296875 C 0.609375 -5.722656 0.960938 -6.8125 1.671875 -7.5625 C 2.390625 -8.3125 3.425781 -8.6875 4.78125 -8.6875 C 6.144531 -8.6875 7.175781 -8.3125 7.875 -7.5625 C 8.582031 -6.820312 8.9375 -5.734375 8.9375 -4.296875 Z M 3.046875 -4.296875 C 3.046875 -2.640625 3.617188 -1.8125 4.765625 -1.8125 C 5.347656 -1.8125 5.78125 -2.007812 6.0625 -2.40625 C 6.351562 -2.8125 6.5 -3.441406 6.5 -4.296875 C 6.5 -5.148438 6.351562 -5.78125 6.0625 -6.1875 C 5.78125 -6.59375 5.351562 -6.796875 4.78125 -6.796875 C 3.625 -6.796875 3.046875 -5.960938 3.046875 -4.296875 Z M 3.046875 -4.296875 "/></g></g></g><g fill="#000000" fill-opacity="1"><g transform="translate(198.840823, 246.319289)"><g><path d="M 4.65625 0 L 2.90625 -6.15625 L 2.84375 -6.15625 C 2.925781 -5.113281 2.96875 -4.300781 2.96875 -3.71875 L 2.96875 0 L 0.921875 0 L 0.921875 -8.5625 L 4 -8.5625 L 5.78125 -2.484375 L 5.828125 -2.484375 L 7.578125 -8.5625 L 10.671875 -8.5625 L 10.671875 0 L 8.546875 0 L 8.546875 -3.75 C 8.546875 -3.945312 8.546875 -4.160156 8.546875 -4.390625 C 8.554688 -4.628906 8.582031 -5.21875 8.625 -6.15625 L 8.578125 -6.15625 L 6.859375 0 Z M 4.65625 0 "/></g></g></g><g fill="#000000" fill-opacity="1"><g transform="translate(210.419726, 246.319289)"><g><path d="M 7.140625 -5.828125 C 7.140625 -4.878906 6.851562 -4.144531 6.28125 -3.625 C 5.71875 -3.101562 4.921875 -2.84375 3.890625 -2.84375 L 3.234375 -2.84375 L 3.234375 0 L 0.921875 0 L 0.921875 -8.5625 L 3.890625 -8.5625 C 4.960938 -8.5625 5.769531 -8.320312 6.3125 -7.84375 C 6.863281 -7.375 7.140625 -6.703125 7.140625 -5.828125 Z M 3.234375 -4.71875 L 3.65625 -4.71875 C 4 -4.71875 4.273438 -4.816406 4.484375 -5.015625 C 4.691406 -5.210938 4.796875 -5.484375 4.796875 -5.828125 C 4.796875 -6.398438 4.472656 -6.6875 3.828125 -6.6875 L 3.234375 -6.6875 Z M 3.234375 -4.71875 "/></g></g></g><g fill="#000000" fill-opacity="1"><g transform="translate(217.986948, 246.319289)"><g><path d="M 6.171875 0 L 5.75 -1.609375 L 2.96875 -1.609375 L 2.546875 0 L 0 0 L 2.796875 -8.59375 L 5.875 -8.59375 L 8.703125 0 Z M 5.265625 -3.5 L 4.90625 -4.90625 C 4.820312 -5.21875 4.71875 -5.617188 4.59375 -6.109375 C 4.46875 -6.609375 4.382812 -6.96875 4.34375 -7.1875 C 4.3125 -6.976562 4.242188 -6.644531 4.140625 -6.1875 C 4.035156 -5.738281 3.804688 -4.84375 3.453125 -3.5 Z M 5.265625 -3.5 "/></g></g></g><g fill="#000000" fill-opacity="1"><g transform="translate(226.682821, 246.319289)"><g><path d="M 9.0625 0 L 6.03125 0 L 2.921875 -6.03125 L 2.859375 -6.03125 C 2.929688 -5.082031 2.96875 -4.359375 2.96875 -3.859375 L 2.96875 0 L 0.921875 0 L 0.921875 -8.5625 L 3.9375 -8.5625 L 7.0625 -2.609375 L 7.09375 -2.609375 C 7.039062 -3.472656 7.015625 -4.164062 7.015625 -4.6875 L 7.015625 -8.5625 L 9.0625 -8.5625 Z M 9.0625 0 "/></g></g></g><g fill="#000000" fill-opacity="1"><g transform="translate(236.671086, 246.319289)"><g><path d="M 3.984375 -5.390625 L 5.453125 -8.5625 L 7.953125 -8.5625 L 5.140625 -3.34375 L 5.140625 0 L 2.8125 0 L 2.8125 -3.265625 L 0 -8.5625 L 2.515625 -8.5625 Z M 3.984375 -5.390625 "/></g></g></g></svg>